<svg width="497" height="547" viewBox="0 0 497 547" fill="none" xmlns="http://www.w3.org/2000/svg">
<path d="M477.662 28.5C477.353 28.4026 476.614 28.2892 476.103 28.2556C473.669 28.1058 470.954 28.85 467.387 30.6516C466.389 31.1536 466.223 31.2861 463.743 33.5347C463.071 34.1428 462.272 34.8455 461.967 35.0928C460.492 36.291 459.106 37.0388 457.84 37.328C457.553 37.3905 457.301 37.4347 457.278 37.4264C457.252 37.4151 457.307 37.2022 457.395 36.9583C457.661 36.2393 458.006 34.8418 458.117 34.0225L458.223 33.2649L458.676 33.4471C459.763 33.8877 460.103 33.8479 460.588 33.2318C460.9 32.839 461.015 32.5644 461.249 31.683L461.424 31.0114L461.698 30.9433C462.867 30.6535 463.66 29.6352 463.624 28.4605C463.607 27.7521 463.325 27.192 462.774 26.7642L462.476 26.5307L462.583 26.0664C462.727 25.4516 462.768 24.959 462.694 24.6862C462.647 24.4988 462.604 24.4368 462.411 24.2712C462.176 24.0629 462.037 24.0132 461.602 23.9557L461.365 23.9281L461.348 23.6582C461.336 23.5138 461.283 23.2784 461.227 23.1432C460.97 22.5203 460.343 22.4324 459.233 22.8605L458.789 23.0324L458.565 22.7976C457.88 22.0748 456.813 21.9135 455.871 22.3927C455.217 22.7256 454.819 23.23 454.601 23.9912L454.473 24.4439L453.995 24.5792C452.996 24.8555 452.377 25.1766 452.109 25.5474C451.913 25.8236 451.836 26.2055 451.908 26.5558C451.969 26.8585 452.196 27.3703 452.371 27.5983C452.427 27.6659 452.466 27.7312 452.46 27.738C452.454 27.7448 452.238 27.7966 451.983 27.8506C451.318 27.9907 450.552 28.224 449.843 28.4957L449.231 28.7325L449.344 28.3581C449.59 27.5114 449.758 26.2858 449.881 24.4856C450.067 21.695 450.168 20.9023 450.45 19.8148C450.65 19.0547 450.967 18.2166 451.212 17.7891C451.296 17.6389 451.521 17.2965 451.704 17.0275C452.3 16.1629 452.46 15.8244 452.705 14.9036C452.96 13.9499 453.151 12.6906 453.262 11.3232C453.316 10.6042 453.303 10.3438 453.152 9.49208C453.011 8.71062 452.985 8.3769 453.031 7.96785C453.048 7.77656 453.053 7.57963 453.034 7.53241C452.98 7.38734 452.716 7.18401 452.58 7.1793C451.943 7.15003 451.823 7.88274 452.146 9.81073C452.267 10.5321 452.272 10.6769 452.209 11.3933C452.031 13.4063 451.723 14.8854 451.329 15.6669C451.259 15.8001 451.015 16.1856 450.79 16.5216C450.257 17.3018 450.135 17.5284 449.851 18.2742C449.291 19.7364 449.086 20.874 448.906 23.4998C448.767 25.5234 448.736 25.8734 448.622 26.6541C448.503 27.4545 448.205 28.6558 448.004 29.129C447.885 29.4005 447.868 29.4274 447.684 29.532C447.372 29.7184 446.917 30.0329 446.742 30.1756C446.494 30.3873 446.45 30.4029 446.368 30.3304C446.228 30.2066 445.769 30.1215 445.324 30.1354L444.88 30.1493L444.125 29.7661C441.764 28.5673 440.421 28.0099 438.94 27.6221C437.498 27.2383 436.08 27.1305 432.743 27.1352C431.344 27.1358 431.069 27.1298 430.392 27.0707C429.371 26.9808 428.619 26.8069 427.769 26.468C426.917 26.1325 425.392 25.7602 424.419 25.6578C423.601 25.5717 423.06 25.585 422.886 25.6922C422.585 25.8813 422.556 26.257 422.822 26.4925C422.944 26.6012 423.02 26.6256 423.256 26.634C423.899 26.6564 424.596 26.7208 425.042 26.8002C425.721 26.9269 426.924 27.2509 427.39 27.4453C427.985 27.6867 428.879 27.9197 429.611 28.027C430.441 28.1479 431.388 28.1907 433.032 28.1817C436.977 28.1629 438.497 28.3904 440.815 29.35C441.192 29.5078 443.219 30.4592 443.27 30.5044C443.284 30.5165 443.139 30.5704 442.945 30.624C442.495 30.7543 441.229 31.2015 440.278 31.5685C439.632 31.8234 439.508 31.8535 439.288 31.8281C439.151 31.8106 438.763 31.7889 438.42 31.7773C438.081 31.7623 437.641 31.7373 437.443 31.7202C436.571 31.6342 435.713 31.6279 434.697 31.6892C433.143 31.783 432.092 32.0012 430.886 32.4834C430.357 32.6959 429.569 33.1046 429.251 33.3333C429.032 33.4917 428.17 33.908 427.553 34.158C426.476 34.5841 424.94 35.0476 423.851 35.2681C422.354 35.5713 421.57 35.6669 420.859 35.6389C420.102 35.6072 419.469 35.6421 419.168 35.728C418.768 35.836 418.592 36.1239 418.715 36.4454C418.829 36.7415 419.014 36.8014 419.534 36.7151C419.732 36.6839 420.282 36.6668 420.757 36.68C421.377 36.6942 421.824 36.6705 422.377 36.5887C423.677 36.3974 424.953 36.1109 426.264 35.7158C427.388 35.3803 429.222 34.6151 429.736 34.2681C431.487 33.0888 433.754 32.5683 436.548 32.7028C436.907 32.723 437.247 32.7444 437.303 32.7572C437.411 32.7861 437.458 32.7607 436.327 33.261C436.054 33.3839 434.733 33.9827 433.402 34.5918C432.069 35.1978 430.568 35.8688 430.068 36.0763C428.624 36.676 427.367 37.3194 426.315 37.9987C423.8 39.6142 421.862 41.2595 419.966 43.3988C418.765 44.7545 418.02 45.7668 417.419 46.8638C416.547 48.4512 416.21 49.6967 416.337 50.8434C416.387 51.3078 416.509 51.6584 416.753 52.0757C416.98 52.4651 417.587 53.0153 418.049 53.2549C419.374 53.936 421.127 54.1945 423.641 54.0686C425.814 53.9632 428.046 53.5932 430.792 52.8826L431.944 52.5841L431.958 52.8703C431.991 53.568 432.238 54.3591 432.574 54.845C432.754 55.1082 433.231 55.5244 433.531 55.6869C433.801 55.835 434.445 56.0348 434.789 56.0785C434.929 56.0926 435.223 56.1103 435.446 56.113L435.852 56.1143L435.742 56.9656C435.377 59.7315 435.292 61.9002 435.448 64.1671C435.576 65.9585 435.843 67.2966 436.296 68.3848C436.692 69.3443 437.035 69.8299 437.659 70.3404C438.286 70.8474 438.864 71.0253 439.722 70.9768C441.216 70.8898 442.967 69.9298 444.897 68.1431C447.767 65.4872 450.547 61.2795 451.918 57.5372C452.044 57.1813 452.299 56.3793 452.48 55.7493C452.765 54.7487 454.111 50.4437 454.153 50.396C454.168 50.379 454.268 51.4466 454.283 51.8488C454.306 52.2827 454.203 53.2561 454.072 53.9669C454.001 54.342 453.74 55.4121 453.493 56.3491C452.566 59.8453 452.524 60.4347 452.944 63.9754C453.229 66.3925 453.269 67.6927 453.081 68.8035C452.987 69.3896 452.987 69.3896 453.104 69.5663C453.296 69.8578 453.669 69.8837 453.904 69.618C454.04 69.4647 454.151 68.9002 454.222 68.0028C454.277 67.2966 454.167 65.4235 453.962 63.6851C453.676 61.2486 453.66 60.45 453.877 59.1826C453.922 58.9059 454.196 57.7802 454.484 56.6795C455.159 54.0787 455.302 53.3059 455.326 52.1469C455.335 51.7659 455.125 49.3475 454.986 48.2209C454.944 47.8559 454.953 47.778 455.14 47.1476C455.476 46.0279 456.045 43.8623 456.214 43.0396C456.302 42.6184 456.384 42.2716 456.391 42.2712C456.435 42.2685 457.715 44.2839 458.122 44.9977C459.039 46.619 459.415 47.6635 459.792 49.6398C459.962 50.5388 459.977 50.6249 460.215 52.6483C460.559 55.5133 460.87 56.7197 461.611 58.0389C462.146 58.9996 462.709 60.6842 462.887 61.8761C462.955 62.3009 462.982 62.3862 463.098 62.4889C463.367 62.7274 463.803 62.6269 463.916 62.3009C464.014 62.0177 463.827 60.9392 463.493 59.8953C463.255 59.1488 462.79 58.0257 462.504 57.511C462.074 56.7341 461.713 55.6241 461.515 54.4754C461.461 54.1595 461.356 53.3855 461.282 52.7548C461.088 51.0802 460.963 50.1914 460.823 49.4712C460.75 49.1209 460.666 48.6875 460.633 48.5057C460.463 47.6196 459.995 46.3355 459.462 45.2908C458.957 44.296 458.499 43.5562 456.987 41.2615C456.622 40.7064 456.599 40.6562 456.61 40.4524C456.634 39.9996 456.597 39.5407 456.519 39.2649C456.444 38.9921 456.443 38.9729 456.578 38.7583C456.711 38.5472 456.729 38.5332 456.871 38.5311C457.138 38.5247 457.891 38.3954 458.297 38.287C459.183 38.0563 460.044 37.6755 460.923 37.1226C462.082 36.3982 462.779 35.8305 465.12 33.6967C466.056 32.8471 466.484 32.473 466.965 32.0958C467.232 31.8829 468.609 31.1872 469.668 30.7268C472.043 29.6935 474.1 29.2115 475.846 29.2867C476.366 29.3101 476.626 29.346 477.214 29.4589C477.66 29.5448 477.82 29.5222 477.971 29.3519C478.092 29.2157 478.124 29.0009 478.049 28.8249C477.963 28.627 477.902 28.5726 477.662 28.5ZM456.239 39.6074C456.235 39.7012 456.229 39.7016 456.217 39.612C456.204 39.558 456.201 39.5066 456.207 39.4998C456.231 39.4725 456.243 39.5137 456.239 39.6074ZM445.86 30.561C445.855 30.5935 445.846 30.5973 445.834 30.5625C445.822 30.5342 445.796 30.5165 445.764 30.5249C445.739 30.5328 445.696 30.5257 445.672 30.5046C445.652 30.4865 445.687 30.4747 445.748 30.4807C445.881 30.4888 445.871 30.4861 445.86 30.561ZM456.088 41.9058C456.081 41.9965 456.078 41.9999 456.063 41.9266C456.054 41.882 456.031 41.8125 456.013 41.7782C455.983 41.7219 455.99 41.7215 456.034 41.7607C456.068 41.7845 456.091 41.854 456.088 41.9058ZM445.213 33.6856C445.214 33.7533 445.207 33.8021 445.197 33.793C445.187 33.7839 445.18 33.7231 445.179 33.6554C445.178 33.5878 445.185 33.539 445.195 33.5481C445.205 33.5571 445.212 33.618 445.213 33.6856ZM445.168 33.9076C445.162 33.9144 445.098 33.9183 445.024 33.9195L444.888 33.9148L445.022 33.8938C445.147 33.8766 445.192 33.8803 445.168 33.9076ZM453.117 41.0243C453.079 41.0395 453.034 41.0422 453.017 41.0271C452.997 41.009 453.018 40.9916 453.069 40.982C453.117 40.9759 453.162 40.9732 453.169 40.9793C453.176 40.9853 453.151 41.0061 453.117 41.0243ZM445.3 35.1732L445.295 35.3089L445.274 35.1812C445.267 35.1075 445.231 35.0452 445.192 35.0411C445.152 35.0306 445.148 35.0211 445.187 35.0124C445.272 34.9847 445.303 35.0247 445.3 35.1732ZM444.974 35.0188C444.968 35.0256 444.917 35.0287 444.865 35.0254C444.771 35.0213 444.771 35.0149 444.863 34.9997C444.956 34.9844 444.998 34.9915 444.974 35.0188ZM445.351 35.4926C445.347 35.5863 445.341 35.5867 445.329 35.4971C445.316 35.4431 445.313 35.3917 445.319 35.3849C445.343 35.3576 445.355 35.3988 445.351 35.4926ZM451.825 41.1442C451.815 41.1416 451.753 41.1356 451.692 41.1297C451.585 41.12 451.585 41.12 451.68 41.1013C451.731 41.0918 451.793 41.0978 451.813 41.1159C451.834 41.134 451.837 41.1434 451.825 41.1442ZM445.321 35.8007C445.251 35.8049 445.247 35.7955 445.297 35.7795C445.332 35.7678 445.368 35.714 445.371 35.6622C445.375 35.5749 445.379 35.5779 445.391 35.6804C445.401 35.7798 445.389 35.7998 445.321 35.8007ZM451.436 41.1096C451.43 41.1164 451.378 41.1196 451.326 41.1162C451.233 41.1122 451.232 41.1058 451.325 41.0905C451.417 41.0753 451.46 41.0824 451.436 41.1096ZM444.204 35.6134C444.198 35.6202 444.147 35.6233 444.095 35.62C444.001 35.6159 444.001 35.6095 444.093 35.5943C444.186 35.579 444.228 35.5861 444.204 35.6134ZM451.628 42.2716C451.624 42.3654 451.618 42.3658 451.606 42.2762C451.593 42.2222 451.59 42.1708 451.596 42.164C451.62 42.1367 451.632 42.1779 451.628 42.2716ZM443.436 35.6565C443.43 35.6633 443.366 35.6672 443.292 35.6684L443.156 35.6637L443.29 35.6427C443.415 35.6255 443.46 35.6292 443.436 35.6565ZM451.683 43.1712C451.679 43.2649 451.672 43.2653 451.66 43.1757C451.647 43.1217 451.644 43.0703 451.65 43.0635C451.674 43.0362 451.687 43.0774 451.683 43.1712ZM454.726 46.0506C454.722 46.1443 454.715 46.1447 454.704 46.0551C454.691 46.0011 454.688 45.9497 454.694 45.9429C454.718 45.9156 454.73 45.9568 454.726 46.0506ZM454.775 46.3378C454.771 46.4315 454.765 46.4319 454.753 46.3423C454.74 46.2883 454.737 46.2369 454.743 46.2301C454.767 46.2028 454.78 46.244 454.775 46.3378ZM454.825 46.625C454.821 46.7187 454.815 46.7191 454.803 46.6295C454.79 46.5755 454.787 46.5241 454.793 46.5173C454.817 46.49 454.829 46.5312 454.825 46.625ZM453.508 45.6404C453.504 45.7342 453.498 45.7345 453.486 45.645C453.473 45.591 453.47 45.5396 453.476 45.5327C453.5 45.5055 453.512 45.5467 453.508 45.6404ZM438.848 32.8735C438.842 32.8804 438.79 32.8835 438.738 32.8801C438.645 32.8761 438.644 32.8697 438.737 32.8544C438.829 32.8392 438.872 32.8463 438.848 32.8735ZM453.6 46.0863C453.596 46.18 453.589 46.1804 453.577 46.0909C453.564 46.0368 453.561 45.9854 453.567 45.9786C453.591 45.9514 453.604 45.9926 453.6 46.0863ZM438.56 32.8555C438.554 32.8623 438.489 32.8661 438.415 32.8674L438.28 32.8627L438.414 32.8417C438.538 32.8245 438.584 32.8282 438.56 32.8555ZM453.649 46.3735C453.645 46.4672 453.639 46.4676 453.627 46.3781C453.614 46.324 453.611 46.2726 453.617 46.2658C453.641 46.2386 453.653 46.2797 453.649 46.3735ZM453.699 46.6607C453.695 46.7544 453.688 46.7548 453.676 46.6653C453.664 46.6112 453.66 46.5598 453.666 46.553C453.691 46.5258 453.703 46.5669 453.699 46.6607ZM453.748 46.9479C453.744 47.0416 453.738 47.042 453.726 46.9524C453.713 46.8984 453.71 46.847 453.716 46.8402C453.74 46.8129 453.752 46.8541 453.748 46.9479ZM453.806 47.3216C453.807 47.3893 453.8 47.438 453.79 47.429C453.78 47.4199 453.773 47.3591 453.772 47.2914C453.771 47.2238 453.778 47.175 453.788 47.1841C453.799 47.1931 453.805 47.254 453.806 47.3216ZM453.865 47.8114L453.864 48.0113L453.843 47.816C453.822 47.627 453.822 47.5786 453.849 47.6028C453.856 47.6088 453.858 47.7022 453.865 47.8114ZM453.93 48.3556L453.929 48.5555L453.908 48.3602C453.887 48.1712 453.887 48.1228 453.914 48.147C453.921 48.153 453.923 48.2464 453.93 48.3556ZM454 48.9221C454.007 49.0442 454.003 49.1379 453.993 49.1288C453.983 49.1198 453.973 49.014 453.966 48.8919C453.958 48.7698 453.962 48.6761 453.972 48.6851C453.983 48.6942 453.992 48.8 454 48.9221ZM450.529 46.436C450.494 46.4542 450.493 46.435 450.526 46.3975C450.556 46.357 450.584 46.3456 450.583 46.3683C450.584 46.3876 450.56 46.4213 450.529 46.436ZM450.412 46.6366C450.377 46.6548 450.376 46.6355 450.409 46.598C450.439 46.5575 450.468 46.5461 450.466 46.5688C450.467 46.5881 450.443 46.6218 450.412 46.6366ZM439.863 37.4713C439.829 37.4895 439.828 37.4702 439.861 37.4328C439.891 37.3923 439.919 37.3809 439.917 37.4036C439.919 37.4228 439.895 37.4565 439.863 37.4713ZM450.174 46.9733C450.14 46.9915 450.139 46.9722 450.172 46.9348C450.202 46.8943 450.23 46.8829 450.228 46.9056C450.229 46.9249 450.205 46.9585 450.174 46.9733ZM439.452 37.8669C439.412 37.8919 439.423 37.8655 439.471 37.811C439.523 37.753 439.55 37.7352 439.543 37.7647C439.528 37.7946 439.486 37.8423 439.452 37.8669ZM448.869 48.5836C448.736 48.7271 448.834 48.6018 449.091 48.3123C449.348 48.0227 449.46 47.9095 449.337 48.0556C449.214 48.2081 449.002 48.4466 448.869 48.5836ZM437.55 40.013C437.51 40.038 437.527 40.0047 437.585 39.94C437.642 39.8753 437.673 39.854 437.656 39.8938C437.633 39.9339 437.584 39.9884 437.55 40.013ZM447.729 49.7325C447.698 49.7473 447.706 49.7243 447.748 49.6766C447.79 49.6289 447.812 49.6179 447.804 49.6474C447.79 49.6773 447.754 49.7181 447.729 49.7325ZM437.086 40.6052C437.055 40.62 437.063 40.5969 437.105 40.5493C437.148 40.5016 437.17 40.4906 437.162 40.5201C437.147 40.5499 437.111 40.5908 437.086 40.6052ZM436.879 40.9079C436.847 40.9227 436.856 40.8996 436.898 40.852C436.94 40.8043 436.962 40.7933 436.954 40.8228C436.94 40.8526 436.904 40.8935 436.879 40.9079ZM447.117 50.2853C447.083 50.3035 447.082 50.2842 447.115 50.2468C447.145 50.2063 447.173 50.1949 447.171 50.2176C447.173 50.2368 447.149 50.2705 447.117 50.2853ZM436.611 41.2788C436.577 41.297 436.575 41.2777 436.609 41.2402C436.638 41.1997 436.667 41.1883 436.665 41.211C436.666 41.2303 436.642 41.264 436.611 41.2788ZM446.812 50.5617C446.777 50.5799 446.776 50.5606 446.809 50.5232C446.839 50.4827 446.868 50.4713 446.866 50.494C446.867 50.5132 446.843 50.5469 446.812 50.5617ZM436.343 41.6496C436.309 41.6678 436.308 41.6485 436.341 41.611C436.371 41.5705 436.399 41.5592 436.397 41.5818C436.398 41.6011 436.375 41.6348 436.343 41.6496ZM446.566 50.77C446.535 50.7848 446.543 50.7617 446.586 50.714C446.628 50.6663 446.65 50.6553 446.642 50.6848C446.628 50.7147 446.591 50.7556 446.566 50.77ZM436.196 41.8842C436.162 41.9024 436.161 41.8831 436.194 41.8456C436.224 41.8051 436.252 41.7937 436.25 41.8164C436.251 41.8357 436.227 41.8694 436.196 41.8842ZM446.351 50.9442C446.317 50.9624 446.316 50.9431 446.349 50.9056C446.379 50.8651 446.407 50.8537 446.405 50.8764C446.406 50.8957 446.383 50.9294 446.351 50.9442ZM435.989 42.1869C435.954 42.2051 435.953 42.1858 435.986 42.1483C436.016 42.1078 436.045 42.0964 436.043 42.1191C436.044 42.1384 436.02 42.1721 435.989 42.1869ZM435.664 42.6901C435.63 42.7083 435.629 42.689 435.662 42.6515C435.692 42.611 435.72 42.5996 435.718 42.6223C435.72 42.6416 435.696 42.6753 435.664 42.6901ZM435.137 43.5602C435.102 43.5784 435.101 43.5592 435.134 43.5217C435.164 43.4812 435.192 43.4698 435.19 43.4925C435.192 43.5118 435.168 43.5454 435.137 43.5602ZM449.282 62.1167C449.248 62.1349 449.247 62.1156 449.28 62.0782C449.31 62.0377 449.338 62.0263 449.336 62.049C449.337 62.0682 449.314 62.1019 449.282 62.1167ZM424.151 39.9671C424.116 39.9853 424.115 39.966 424.148 39.9286C424.178 39.8881 424.206 39.8767 424.205 39.8994C424.206 39.9187 424.182 39.9523 424.151 39.9671ZM423.505 40.4897C423.471 40.5079 423.47 40.4886 423.503 40.4512C423.533 40.4107 423.561 40.3993 423.559 40.422C423.56 40.4413 423.536 40.4749 423.505 40.4897ZM448.456 63.3918C448.425 63.4066 448.433 63.3835 448.476 63.3358C448.518 63.2881 448.54 63.2771 448.532 63.3066C448.518 63.3365 448.481 63.3774 448.456 63.3918ZM423.045 40.8722C423.01 40.8904 423.009 40.8711 423.042 40.8336C423.072 40.7931 423.1 40.7818 423.098 40.8044C423.1 40.8237 423.076 40.8574 423.045 40.8722ZM422.739 41.1486C422.704 41.1668 422.703 41.1475 422.736 41.11C422.766 41.0695 422.795 41.0582 422.793 41.0808C422.794 41.1001 422.77 41.1338 422.739 41.1486ZM448.219 63.7285C448.185 63.7467 448.183 63.7275 448.217 63.69C448.246 63.6495 448.275 63.6381 448.273 63.6608C448.274 63.6801 448.25 63.7137 448.219 63.7285ZM422.524 41.3228C422.489 41.341 422.488 41.3217 422.521 41.2842C422.551 41.2437 422.579 41.2324 422.578 41.255C422.579 41.2743 422.555 41.308 422.524 41.3228ZM448.011 64.0312C447.977 64.0494 447.976 64.0302 448.009 63.9927C448.039 63.9522 448.067 63.9408 448.065 63.9635C448.067 63.9828 448.043 64.0164 448.011 64.0312ZM422.157 41.6673C422.123 41.6855 422.122 41.6662 422.155 41.6287C422.185 41.5883 422.213 41.5769 422.211 41.5996C422.213 41.6188 422.189 41.6525 422.157 41.6673ZM447.698 64.4532C447.658 64.4782 447.669 64.4517 447.718 64.3972C447.769 64.3393 447.797 64.3215 447.789 64.351C447.775 64.3809 447.732 64.4285 447.698 64.4532ZM421.882 41.9096C421.848 41.9278 421.846 41.9085 421.88 41.8711C421.909 41.8306 421.938 41.8192 421.936 41.8419C421.937 41.8612 421.913 41.8948 421.882 41.9096ZM447.295 64.9773C447.263 64.9921 447.272 64.969 447.314 64.9213C447.356 64.8736 447.378 64.8626 447.37 64.8921C447.356 64.922 447.32 64.9629 447.295 64.9773ZM421.35 42.4415C421.309 42.4665 421.321 42.44 421.369 42.3855C421.42 42.3276 421.448 42.3098 421.44 42.3393C421.426 42.3692 421.384 42.4169 421.35 42.4415ZM436.668 56.0586C436.662 56.0654 436.61 56.0685 436.559 56.0652C436.465 56.0612 436.464 56.0547 436.557 56.0395C436.65 56.0242 436.692 56.0313 436.668 56.0586ZM446.785 65.6206C446.724 65.6759 446.754 65.629 446.853 65.5166C446.953 65.4042 447.005 65.3591 446.967 65.4162C446.928 65.4734 446.847 65.5653 446.785 65.6206ZM436.254 56.1545C436.218 56.1954 436.192 56.1969 436.191 56.1648C436.189 56.1327 436.212 56.099 436.241 56.0876C436.32 56.0667 436.324 56.0761 436.254 56.1545ZM419.972 43.9272C419.938 43.9454 419.937 43.9261 419.97 43.8886C420 43.8481 420.028 43.8367 420.026 43.8594C420.027 43.8787 420.004 43.9124 419.972 43.9272ZM435.977 58.08C435.973 58.1737 435.967 58.1741 435.955 58.0845C435.942 58.0305 435.939 57.9791 435.945 57.9723C435.969 57.945 435.981 57.9862 435.977 58.08ZM419.821 44.0975C419.787 44.1157 419.786 44.0964 419.819 44.0589C419.849 44.0185 419.877 44.0071 419.875 44.0298C419.877 44.049 419.853 44.0827 419.821 44.0975ZM445.412 67.1706C445.357 67.219 445.389 67.1687 445.48 67.0665C445.57 66.9643 445.616 66.9261 445.578 66.9832C445.536 67.0437 445.464 67.1255 445.412 67.1706ZM445 67.5662C444.969 67.581 444.977 67.5579 445.02 67.5102C445.062 67.4625 445.084 67.4515 445.076 67.481C445.062 67.5109 445.025 67.5518 445 67.5662ZM419.086 44.9963C419.045 45.0213 419.057 44.9949 419.105 44.9403C419.156 44.8824 419.184 44.8646 419.176 44.8941C419.162 44.924 419.12 44.9717 419.086 44.9963ZM444.574 67.9788C444.543 67.9936 444.551 67.9705 444.593 67.9228C444.635 67.8752 444.657 67.8642 444.649 67.8937C444.635 67.9235 444.599 67.9644 444.574 67.9788ZM435.788 60.2839C435.784 60.3776 435.777 60.378 435.766 60.2885C435.753 60.2344 435.749 60.183 435.756 60.1762C435.78 60.149 435.792 60.1902 435.788 60.2839ZM427.728 53.2448C427.722 53.2516 427.671 53.2547 427.619 53.2514C427.525 53.2474 427.525 53.241 427.617 53.2257C427.71 53.2105 427.752 53.2176 427.728 53.2448ZM418.712 45.4864C418.681 45.5012 418.689 45.4781 418.731 45.4304C418.774 45.3827 418.796 45.3717 418.788 45.4012C418.773 45.4311 418.737 45.472 418.712 45.4864ZM435.773 60.575C435.769 60.6687 435.763 60.6691 435.751 60.5795C435.738 60.5255 435.735 60.4741 435.741 60.4673C435.765 60.44 435.777 60.4812 435.773 60.575ZM444.298 68.2211C444.264 68.2393 444.263 68.2201 444.296 68.1826C444.326 68.1421 444.354 68.1307 444.352 68.1534C444.354 68.1727 444.33 68.2064 444.298 68.2211ZM427.441 53.2944C427.435 53.3012 427.383 53.3043 427.332 53.301C427.238 53.297 427.237 53.2905 427.33 53.2753C427.423 53.26 427.465 53.2671 427.441 53.2944ZM435.758 60.866C435.754 60.9598 435.748 60.9602 435.736 60.8706C435.723 60.8166 435.72 60.7652 435.726 60.7584C435.75 60.7311 435.762 60.7723 435.758 60.866ZM418.535 45.755C418.501 45.7732 418.499 45.7539 418.533 45.7165C418.562 45.676 418.591 45.6646 418.589 45.6873C418.59 45.7065 418.566 45.7402 418.535 45.755ZM427.154 53.344C427.148 53.3508 427.096 53.3539 427.044 53.3506C426.951 53.3465 426.95 53.3401 427.043 53.3249C427.135 53.3096 427.178 53.3167 427.154 53.344ZM435.748 61.2214C435.744 61.3151 435.737 61.3155 435.725 61.2259C435.712 61.1719 435.709 61.1205 435.715 61.1137C435.74 61.0864 435.752 61.1276 435.748 61.2214ZM426.866 53.3935C426.86 53.4004 426.809 53.4035 426.757 53.4001C426.663 53.3961 426.663 53.3897 426.756 53.3744C426.848 53.3592 426.891 53.3663 426.866 53.3935ZM418.328 46.0577C418.293 46.0759 418.292 46.0566 418.325 46.0192C418.355 45.9787 418.383 45.9673 418.382 45.99C418.383 46.0092 418.359 46.0429 418.328 46.0577ZM435.741 61.599C435.742 61.6666 435.736 61.7154 435.725 61.7063C435.715 61.6973 435.708 61.6364 435.707 61.5688C435.706 61.5011 435.713 61.4524 435.723 61.4614C435.734 61.4705 435.741 61.5313 435.741 61.599ZM426.515 53.447C426.509 53.4538 426.458 53.4569 426.406 53.4536C426.312 53.4496 426.312 53.4431 426.404 53.4279C426.497 53.4126 426.539 53.4197 426.515 53.447ZM418.181 46.2923C418.146 46.3105 418.145 46.2912 418.178 46.2537C418.208 46.2132 418.236 46.2019 418.234 46.2245C418.236 46.2438 418.212 46.2775 418.181 46.2923ZM435.734 62.0186C435.735 62.0862 435.729 62.135 435.718 62.1259C435.708 62.1169 435.701 62.056 435.7 61.9884C435.7 61.9207 435.706 61.8719 435.717 61.881C435.727 61.89 435.734 61.9509 435.734 62.0186ZM426.167 53.497C426.16 53.5038 426.096 53.5077 426.022 53.509L425.886 53.5043L426.021 53.4833C426.145 53.4661 426.191 53.4698 426.167 53.497ZM425.751 53.5544C425.745 53.5612 425.668 53.5658 425.574 53.5682L425.407 53.5655L425.573 53.5425C425.727 53.5268 425.775 53.5271 425.751 53.5544ZM435.737 62.5988C435.745 62.7208 435.741 62.8146 435.73 62.8055C435.72 62.7965 435.711 62.6906 435.703 62.5686C435.696 62.4465 435.7 62.3527 435.71 62.3618C435.72 62.3709 435.73 62.4767 435.737 62.5988ZM417.886 46.7614C417.852 46.7796 417.851 46.7604 417.884 46.7229C417.914 46.6824 417.942 46.671 417.94 46.6937C417.942 46.713 417.918 46.7466 417.886 46.7614ZM425.207 53.6194C425.201 53.6263 425.079 53.6336 424.937 53.6357L424.67 53.6422L424.936 53.6165C425.176 53.5923 425.231 53.5922 425.207 53.6194ZM435.783 63.8857C435.808 64.3098 435.819 64.6477 435.812 64.6416C435.802 64.6326 435.774 64.2796 435.749 63.8555C435.723 63.4315 435.712 63.0936 435.719 63.0996C435.729 63.1087 435.757 63.4617 435.783 63.8857ZM424.277 53.7078C424.274 53.7112 424.062 53.724 423.814 53.7357L423.354 53.7538L423.813 53.7164C424.233 53.6814 424.301 53.6805 424.277 53.7078ZM435.888 65.1046C435.89 65.1915 435.885 65.2531 435.874 65.2441C435.868 65.238 435.856 65.1613 435.854 65.0744C435.852 64.9874 435.858 64.9258 435.869 64.9349C435.875 64.9409 435.886 65.0176 435.888 65.1046ZM422.894 53.759C422.888 53.7658 422.81 53.7705 422.717 53.7729L422.549 53.7701L422.716 53.7472C422.869 53.7315 422.918 53.7318 422.894 53.759ZM435.947 65.5943C435.943 65.6881 435.937 65.6885 435.925 65.5989C435.906 65.5033 435.913 65.461 435.94 65.4851C435.947 65.4911 435.95 65.5425 435.947 65.5943ZM441.051 70.3484C441.014 70.37 440.981 70.372 440.984 70.3557C440.983 70.3365 441.004 70.319 441.036 70.3107C441.115 70.2833 441.126 70.3117 441.051 70.3484ZM422.346 53.7599C422.339 53.7667 422.275 53.7705 422.201 53.7718L422.065 53.7671L422.2 53.7461C422.324 53.7289 422.37 53.7326 422.346 53.7599ZM436 65.9458C435.996 66.0395 435.99 66.0399 435.978 65.9503C435.96 65.8547 435.967 65.8124 435.994 65.8366C436.001 65.8426 436.004 65.894 436 65.9458ZM421.99 53.7491C421.984 53.7559 421.92 53.7597 421.846 53.761L421.71 53.7563L421.844 53.7353C421.969 53.7181 422.014 53.7218 421.99 53.7491ZM436.096 66.4559C436.092 66.5497 436.085 66.55 436.073 66.4605C436.055 66.3649 436.062 66.3225 436.089 66.3467C436.096 66.3527 436.099 66.4041 436.096 66.4559ZM421.632 53.7417C421.626 53.7485 421.574 53.7516 421.523 53.7482C421.429 53.7442 421.428 53.7378 421.521 53.7225C421.614 53.7073 421.656 53.7144 421.632 53.7417ZM421.405 53.7231C421.399 53.7299 421.348 53.733 421.296 53.7297C421.202 53.7257 421.202 53.7193 421.294 53.704C421.387 53.6887 421.429 53.6958 421.405 53.7231ZM421.178 53.7045C421.172 53.7114 421.121 53.7145 421.069 53.7111C420.975 53.7071 420.975 53.7007 421.067 53.6854C421.16 53.6702 421.202 53.6773 421.178 53.7045ZM416.692 49.9901C416.688 50.0838 416.681 50.0842 416.669 49.9947C416.651 49.8991 416.658 49.8567 416.685 49.8809C416.692 49.8869 416.695 49.9383 416.692 49.9901ZM440.064 70.6176C440.061 70.621 439.894 70.631 439.698 70.6397L439.335 70.6519L439.697 70.6204C440.027 70.5908 440.089 70.5903 440.064 70.6176ZM416.673 50.2169C416.669 50.3107 416.663 50.311 416.651 50.2215C416.632 50.1259 416.639 50.0835 416.666 50.1077C416.673 50.1137 416.676 50.1651 416.673 50.2169ZM416.72 50.9879C416.716 51.0817 416.709 51.0821 416.697 50.9925C416.679 50.8969 416.686 50.8545 416.713 50.8787C416.72 50.8847 416.723 50.9361 416.72 50.9879ZM437.439 69.6475C437.42 69.6486 437.386 69.6249 437.372 69.5935C437.353 69.5591 437.373 69.558 437.41 69.5912C437.451 69.621 437.462 69.6493 437.439 69.6475ZM437.835 70.0653C437.768 70.0178 437.666 69.9272 437.614 69.8691C437.559 69.8079 437.612 69.8434 437.735 69.952C437.858 70.0607 437.899 70.1098 437.835 70.0653ZM417.369 52.2868C417.349 52.288 417.316 52.2642 417.301 52.2329C417.283 52.1985 417.302 52.1973 417.339 52.2306C417.38 52.2604 417.391 52.2887 417.369 52.2868Z" fill="black"/>
<path d="M488.777 439.368V217H197.191V439.375L189.569 534.974H496.405L488.777 439.368ZM203.489 522.12L210.012 440.384L210.057 439.883V439.369V229.854H475.922V439.375V439.889L475.967 440.39L482.49 522.126H203.489V522.12ZM426.668 266.532C426.668 270.073 425.113 273.222 422.683 275.42C419.9 316.192 385.934 348.525 344.481 348.525C303.407 348.525 269.666 316.789 266.35 276.557C263.098 274.404 260.945 270.721 260.945 266.525C260.945 259.886 266.324 254.5 272.97 254.5C279.609 254.5 284.988 259.886 284.988 266.525C284.988 269.816 283.658 272.798 281.518 274.963C284.037 307.534 311.274 333.28 344.482 333.28C377.31 333.28 404.348 308.125 407.388 276.075C404.496 273.877 402.6 270.439 402.6 266.518C402.6 259.879 407.986 254.487 414.631 254.487C421.282 254.501 426.668 259.893 426.668 266.532Z" fill="black"/>
<path d="M396 84.5001C396 84.5001 348 84.5001 347 121C346 157.5 395 171 329 208" stroke="black" stroke-width="7" stroke-linecap="round" stroke-linejoin="round"/>
<path fill-rule="evenodd" clip-rule="evenodd" d="M203.431 409.494L201.093 410.045C199.466 410.435 198.04 410.799 197.931 410.839C197.696 410.94 197.631 410.687 193.418 394.269L193.417 394.267L193.354 394.019C193.083 392.975 192.823 391.966 192.581 391.029C191.752 387.821 191.139 385.449 191.092 385.323C191.028 385.085 192.377 384.134 196.957 381.206L202.207 377.848L202.155 376.805L200.201 378.049L199.453 378.529C197.891 379.531 195.542 381.039 193.764 382.167L189.997 384.605L189.411 384.202C189.108 383.991 185.828 381.95 182.152 379.665C178.476 377.398 175.346 375.443 175.213 375.319C175.023 375.16 175.998 374.074 179.827 370.251C181.027 369.049 182.881 367.188 184.972 365.088L184.977 365.083C187.54 362.509 190.459 359.578 192.969 357.064C196.387 353.638 199.426 350.609 200.8 349.244L200.739 348L199.816 348.911C199.017 349.712 195.607 353.134 190.99 357.766L190.358 358.4C180.87 367.92 166.769 382.068 159.448 389.41C154.997 393.882 147.625 401.279 143.066 405.847C139.385 409.519 135.822 413.103 134.154 414.781C133.908 415.029 133.703 415.235 133.545 415.394C133.447 415.492 133.368 415.572 133.307 415.632C132.507 416.454 131.63 417.222 131.376 417.323C131.122 417.443 130.872 417.673 130.824 417.878C130.76 418.156 128.75 420.237 120.362 428.628L119.258 429.719L117.732 429.753L116.895 430.521C117.074 430.528 117.17 430.537 117.166 430.548C117.132 430.623 114.479 433.28 111.236 436.474C103.077 444.562 91.4616 456.055 71.2411 476.056C68.5202 478.76 63.0844 484.138 56.6935 490.462L56.6539 490.501C51.2142 495.883 45.0861 501.946 39.3525 507.626C31.4619 515.443 22.8882 523.925 16.4225 530.321L16.4083 530.335L16.2964 530.445C12.5872 534.115 9.58372 537.086 7.81978 538.833L0 546.582L1.33632 546.529C1.46585 546.396 1.60612 546.254 1.75267 546.11C1.87018 545.993 2.32858 545.54 3.07922 544.796L3.21934 544.658L3.24291 544.634C6.95617 540.958 17.0217 530.993 28.422 519.721L53.8795 494.519L54.6047 495.212C55.0051 495.585 58.7158 499.363 62.8676 503.623L70.406 511.359L68.5989 514.484C67.59 516.197 64.8774 520.829 62.5827 524.764C61.471 526.655 60.0424 529.094 58.6111 531.538L58.6022 531.553C57.0581 534.189 55.5115 536.829 54.3573 538.791L50.9843 544.563L52.0561 544.52L61.2507 528.812C66.6582 519.568 71.1502 512.07 71.2087 512.16C71.3251 512.322 72.8114 512.638 80.9813 514.249C81.6318 514.38 82.7531 514.602 84.1179 514.873L84.174 514.884C86.2291 515.292 88.824 515.807 91.1945 516.284C94.3285 516.908 96.8467 517.41 98.8684 517.812L98.8728 517.813C105.879 519.209 106.921 519.416 106.978 519.414C107.125 519.409 107.107 519.944 106.894 521.722C106.81 522.397 106.568 524.409 106.288 526.734L106.287 526.745L105.967 529.407C105.816 530.663 105.641 532.101 105.469 533.526C105.186 535.86 104.908 538.159 104.741 539.573C104.611 540.679 104.482 541.692 104.382 542.448L105.303 542.412C105.362 541.916 105.436 541.312 105.517 540.67C105.646 539.664 105.884 537.667 106.143 535.492C106.289 534.264 106.442 532.978 106.586 531.782C106.719 530.673 106.862 529.478 107.001 528.314C107.277 525.998 107.539 523.805 107.683 522.671L108.053 519.56L118.991 519.173L129.912 518.787L129.948 519.302C129.958 519.579 130.663 524.919 131.53 531.176C132.12 535.531 132.629 539.361 132.873 541.32L133.827 541.282C133.637 540.006 133.313 537.7 132.981 535.181C132.502 531.547 131.881 527.015 131.61 525.089C131.405 523.641 131.194 522.025 131.06 521C131.017 520.673 130.983 520.407 130.958 520.225L130.799 518.848L134.064 517.829C135.254 517.455 137.302 516.806 139.351 516.156L139.36 516.153L139.406 516.139C140.414 515.819 141.421 515.5 142.324 515.214C144.971 514.358 148.984 513.078 151.429 512.299L151.713 512.208C155.013 511.151 156.25 510.665 156.715 510.261L157.36 509.741L163.531 522.079C164.753 524.526 165.895 526.815 166.858 528.744L166.862 528.752C167.81 530.652 168.583 532.201 169.085 533.206L169.805 532.519C167.233 527.598 158.114 509.315 158.187 509.121C158.27 508.879 179.825 490.637 179.975 490.687C180.185 490.775 193.18 503.347 196.692 506.839L197.425 506.139C195.969 504.769 192.907 501.841 189.414 498.484C181.473 490.818 180.688 490.016 180.936 489.731C181.078 489.56 183.801 484.172 187.004 477.771C190.207 471.37 192.842 466.114 192.878 466.076C192.912 466.001 197.353 468.02 202.473 470.438L205.451 471.855L205.417 470.783C204.321 470.287 202.109 469.265 199.587 468.088C195.818 466.322 193.152 464.978 193.185 464.866C193.253 464.68 194.27 459.555 196.867 446.445C197.196 444.811 197.838 441.58 198.29 439.241L199.137 435.025L200.615 435.102C201.428 435.165 202.738 435.174 203.529 435.146L204.261 435.12L204.239 434.449C203.728 434.386 202.861 434.315 201.931 434.263C200.509 434.202 199.325 434.097 199.287 434.061C199.25 434.044 199.032 431.028 198.774 427.386C198.535 423.744 198.193 418.777 198.015 416.35C197.856 413.921 197.729 411.898 197.765 411.878C197.826 411.813 202.049 410.745 203.461 410.424L203.431 409.494ZM197.591 434.066C197.202 434.024 194.764 433.907 192.179 433.796C186.768 433.563 185.862 433.485 185.966 433.315C186.001 433.24 185.934 432.394 185.808 431.44C185.002 425.328 184.008 417.564 183.878 416.481L183.74 415.195L185.806 414.698C186.958 414.417 189.883 413.705 192.333 413.121C194.782 412.518 196.813 412.059 196.851 412.095C196.908 412.148 198.013 428.796 198.184 432.072L198.276 434.134L197.591 434.066ZM193.335 459.717C192.818 462.298 192.341 464.454 192.288 464.511C192.2 464.625 178.967 458.547 178.587 458.228C178.492 458.14 179.159 455.645 180.201 452.253C180.964 449.744 182.11 445.946 183.047 442.841L183.767 440.455C184.094 439.397 184.402 438.396 184.67 437.525L184.677 437.503L184.677 437.501C185.232 435.699 185.613 434.459 185.637 434.433C185.673 434.413 186.688 434.433 187.889 434.483C189.108 434.55 191.675 434.681 193.596 434.76C195.535 434.857 197.364 434.959 197.679 434.985L198.234 435.057L196.246 445.047C195.167 450.525 193.852 457.135 193.335 459.717ZM196.67 411.142C196.633 411.144 195.371 411.446 193.872 411.813C193.014 412.023 192.226 412.216 191.503 412.392C184.431 414.124 183.587 414.331 183.482 414.137C183.467 414.111 183.467 414.077 183.466 414.039C183.466 414.006 183.465 413.97 183.456 413.933C183.412 413.732 182.985 411.571 182.549 409.152C180.959 400.69 179.961 395.397 179.651 393.951C179.475 393.146 179.341 392.487 179.359 392.468C179.359 392.468 181.758 390.945 184.642 389.091C187.545 387.237 190.037 385.747 190.15 385.798C190.299 385.849 191.077 388.568 192.087 392.608C193.029 396.317 194.441 401.817 195.23 404.832C196.531 409.838 196.835 411.136 196.67 411.142ZM185.82 478.181C182.875 484.075 180.357 488.995 180.233 489.129C180.038 489.338 178.761 488.185 173.32 482.92L166.621 476.482L167.183 475.706C167.5 475.289 170.017 471.383 172.795 467.026C173.633 465.712 174.426 464.468 175.125 463.371C176.746 460.829 177.866 459.073 177.878 459.046C177.896 459.009 181.119 460.481 185.037 462.297L192.142 465.604L191.659 466.543C191.527 466.811 190.775 468.308 189.679 470.491L189.678 470.494C188.627 472.586 187.261 475.307 185.82 478.181ZM183.849 388.547C180.982 390.382 178.565 391.906 178.492 391.927C178.327 391.969 166.642 383.772 166.618 383.607C166.616 383.551 168.341 381.757 170.461 379.636L174.307 375.793L176.024 376.894C176.986 377.506 180.324 379.6 183.472 381.554C186.602 383.49 189.148 385.115 189.13 385.134C189.095 385.172 186.733 386.694 183.849 388.547ZM184.42 433.388C182.74 433.337 169.83 432.724 169.165 432.674C168.498 432.605 168.404 432.535 168.37 432.094C168.332 431.56 167.538 425.78 166.957 421.873C166.764 420.571 166.651 419.469 166.687 419.43C166.721 419.374 167.69 419.118 168.823 418.839C169.616 418.656 171.295 418.243 173.078 417.805L173.082 417.804C173.845 417.616 174.628 417.424 175.368 417.243C182.405 415.519 182.698 415.453 182.775 415.543C182.832 415.577 183.1 417.43 183.381 419.651C184.067 424.956 184.368 427.232 184.761 430.002C184.935 431.268 185.073 432.554 185.065 432.849C185.065 433.365 185.011 433.404 184.42 433.388ZM183.142 439.481C181.622 444.458 180.036 449.677 178.488 454.895C178.008 456.442 177.574 457.73 177.518 457.732C177.445 457.734 174.202 456.245 170.302 454.41C165.334 452.096 163.212 451.01 163.242 450.806C163.285 450.472 168.02 433.673 168.091 433.597C168.198 433.483 184.638 434.339 184.642 434.45C184.645 434.523 183.969 436.778 183.142 439.481ZM181.697 414.788C181.167 414.917 177.529 415.802 173.617 416.751C169.686 417.702 166.467 418.443 166.467 418.424C166.455 418.414 166.072 417.436 165.487 415.943L165.473 415.906C165.075 414.89 164.585 413.64 164.056 412.296C162.757 408.949 161.503 405.803 161.283 405.313C161.081 404.822 160.954 404.348 161.025 404.29C161.115 404.213 162.953 403.023 165.135 401.618C166.437 400.791 168.316 399.582 170.146 398.406C171.382 397.611 172.594 396.831 173.591 396.193C176.061 394.613 178.209 393.301 178.355 393.278C178.576 393.251 178.993 395.136 180.598 403.505C181.682 409.146 182.589 413.945 182.616 414.165C182.646 414.496 182.502 414.593 181.697 414.788ZM172.219 396.002C169.299 397.876 165.386 400.392 163.512 401.602C161.654 402.792 160.048 403.771 159.938 403.775C159.624 403.786 151.478 398.653 151.62 398.519C151.692 398.461 154.897 395.25 158.744 391.39C162.59 387.529 165.853 384.39 165.983 384.422C166.206 384.469 177.646 392.51 177.574 392.568C177.563 392.579 176.67 393.151 175.318 394.017L175.316 394.018C174.439 394.58 173.368 395.265 172.219 396.002ZM168.563 499.074C162.691 504.057 157.838 508.138 157.766 508.177C157.53 508.278 147.758 488.47 147.936 488.298C148.025 488.203 152.064 485.626 156.933 482.54L165.752 476.937L166.667 477.789C169.051 480.028 179.208 489.866 179.211 489.939C179.213 489.994 174.417 494.11 168.563 499.074ZM171.57 467.327C168.652 471.892 166.204 475.667 166.095 475.707C166.005 475.748 163.317 473.28 160.148 470.22L154.365 464.654L158.529 458.329C160.804 454.856 162.731 452.004 162.822 451.982C162.896 451.98 166.12 453.451 169.982 455.269C174.538 457.394 176.997 458.635 176.947 458.784C176.897 458.915 174.488 462.762 171.57 467.327ZM167.458 432.384C167.371 432.535 166.598 432.562 164.566 432.449C164.003 432.421 163.328 432.387 162.633 432.352L162.62 432.351L162.602 432.35C161.437 432.291 160.222 432.229 159.394 432.19C158.082 432.125 156.992 432.053 156.973 432.036C156.954 432.018 156.807 431.009 156.654 429.797C156.012 424.676 155.842 423.52 155.724 422.805L155.588 422.072L156.574 421.816C158.932 421.217 165.605 419.616 165.734 419.612C165.808 419.609 165.875 419.957 165.909 420.398C165.93 420.969 167.424 431.408 167.577 432.085C167.579 432.14 167.528 432.271 167.458 432.384ZM164.871 441.603C163.641 445.942 162.56 449.779 162.48 450.114L162.335 450.727L158.454 448.891C156.317 447.898 154.496 447.003 154.402 446.933C154.306 446.844 154.56 445.157 154.948 443.097C155.338 441.073 155.912 438.01 156.237 436.266C156.563 434.539 156.844 433.091 156.861 433.054C156.931 432.941 167.091 433.466 167.095 433.595C167.098 433.669 166.1 437.263 164.871 441.603ZM161.514 419.687C155.628 421.131 155.427 421.175 155.236 420.979C155.14 420.89 153.884 418.722 152.41 416.155L149.756 411.492L154.209 408.643C155.389 407.886 156.53 407.157 157.431 406.582C158.388 405.97 159.073 405.533 159.24 405.422C159.996 404.916 160.259 405.036 160.643 406C160.769 406.337 161.44 408.045 162.262 410.139L162.267 410.151L163.015 412.056C164.132 414.966 165.184 417.621 165.326 417.967C165.485 418.311 165.588 418.621 165.553 418.659C165.535 418.678 163.708 419.149 161.514 419.687ZM156.321 481.898C153.015 484.003 150.091 485.85 148.566 486.814L148.553 486.823C147.864 487.257 147.464 487.51 147.448 487.522C147.338 487.563 139.704 472.418 139.694 472.142C139.692 472.068 140.397 471.675 141.286 471.274C148.905 467.741 153.66 465.582 153.807 465.577C153.899 465.573 156.416 467.918 159.394 470.782C162.371 473.627 164.871 476.009 164.963 476.024C165.038 476.058 165.097 476.148 165.099 476.204C165.101 476.277 161.154 478.832 156.321 481.898ZM157.969 457.593C155.852 460.821 154.05 463.577 153.963 463.727C153.79 464.047 152.154 462.63 148.599 459.086L146.688 457.181L150.34 452.516C152.351 449.955 154.029 447.868 154.084 447.866C154.287 447.859 161.828 451.501 161.832 451.612C161.835 451.685 160.086 454.384 157.969 457.593ZM153.776 407.847C151.215 409.486 149.086 410.797 149.066 410.761C149.051 410.746 148.405 410.007 147.545 409.023L147.525 409L146.876 408.257C145.684 406.897 144.721 405.715 144.717 405.622C144.711 405.438 150.729 399.399 150.914 399.392C150.987 399.39 152.852 400.504 155.077 401.882C158.678 404.133 159.057 404.415 158.769 404.628C158.571 404.764 156.336 406.207 153.776 407.847ZM151.156 431.799C148.496 431.672 146.297 431.528 146.259 431.493C146.202 431.439 145.618 425.873 145.588 425.026L145.568 424.473L150.011 423.413C152.443 422.829 154.51 422.35 154.62 422.328C154.785 422.304 155.781 429.109 155.929 431.206L155.978 432.052L151.156 431.799ZM155.38 436.019C155.134 437.393 154.591 440.288 154.187 442.423C153.802 444.575 153.441 446.358 153.388 446.415C153.353 446.472 151.593 445.704 149.474 444.71L145.63 442.91L145.705 441.893C145.741 441.339 145.88 439.01 146.002 436.738C146.106 434.467 146.242 432.581 146.277 432.524C146.313 432.486 148.288 432.564 150.653 432.683C153.035 432.802 155.214 432.891 155.509 432.88C155.914 432.866 156.009 432.936 155.944 433.197C155.895 433.364 155.645 434.646 155.38 436.019ZM154.184 421.495C154.092 421.498 152.081 421.975 149.686 422.558L145.354 423.614L144.687 422.495C142.276 418.45 141.428 416.894 141.553 416.779C141.678 416.664 146.636 413.483 148.405 412.388C148.729 412.174 149.02 412.053 149.058 412.107C149.23 412.267 154.304 421.214 154.309 421.362C154.311 421.435 154.258 421.493 154.184 421.495ZM156.246 509.503C155.887 509.793 154.999 510.211 154.197 510.479C153.779 510.612 152.065 511.161 149.684 511.925C147.592 512.595 144.985 513.43 142.291 514.293C131.827 517.669 130.622 518.025 130.612 517.73C130.61 517.687 130.544 517.191 130.439 516.415L130.439 516.411C130.322 515.539 130.157 514.314 129.983 512.977C128.222 500.187 127.865 497.416 127.919 497.358C127.954 497.32 132.057 495.516 137.051 493.348C142.028 491.199 146.293 489.296 146.528 489.141C146.935 488.854 146.942 488.867 147.794 490.546L147.834 490.625C152.971 500.861 156.802 508.562 156.827 508.745C156.832 508.874 156.585 509.196 156.246 509.503ZM149.092 452.689L146.004 456.615L143.121 453.804C141.536 452.255 140.234 450.919 140.232 450.845C140.228 450.734 144.564 444.552 145.06 443.981C145.236 443.754 145.984 444.041 149.228 445.585L153.166 447.437L152.673 448.1C152.591 448.204 152.399 448.452 152.125 448.803C151.454 449.665 150.296 451.153 149.092 452.689ZM146.096 468.08C142.323 469.818 139.201 471.238 139.182 471.201C139.049 471.095 135.311 463.428 135.364 463.371C135.401 463.351 135.998 463.035 136.686 462.679C137.392 462.322 139.745 461.059 141.916 459.876L145.896 457.725L149.465 461.157C151.431 463.042 153.037 464.664 153.022 464.738C152.988 464.831 149.888 466.324 146.096 468.08ZM144.653 413.701C142.634 415.008 140.919 416.064 140.846 416.067C140.551 416.077 137.783 412.358 137.981 412.222C138.012 412.205 139.001 411.203 140.292 409.895L140.293 409.894L140.919 409.26C142.521 407.655 143.896 406.371 143.989 406.404C144.138 406.454 148.401 411.245 148.348 411.321C148.348 411.321 146.672 412.412 144.653 413.701ZM144.766 431.508C144.21 431.418 137.653 431.115 137.046 431.136C136.696 431.149 136.615 430.949 136.234 429.044C136.009 427.891 135.846 426.919 135.899 426.88C136.043 426.765 144.509 424.751 144.567 424.822C144.662 424.911 145.116 428.896 145.207 430.423L145.267 431.583L144.766 431.508ZM145.085 436.881C145.012 438.411 144.938 439.914 144.892 440.845C144.871 441.262 144.857 441.565 144.85 441.702C144.847 442.126 144.804 442.478 144.767 442.479C144.73 442.481 143.456 441.899 141.919 441.197L139.144 439.894L138.049 436.061C137.458 433.943 136.99 432.171 137.044 432.132C137.079 432.075 138.961 432.119 141.214 432.224C144.15 432.342 145.297 432.449 145.303 432.614C145.308 432.743 145.21 434.664 145.085 436.881ZM140.015 424.91L135.719 425.947L135.538 424.478C135.453 423.651 135.357 422.493 135.336 421.885L135.296 420.762L137.803 419.18C139.173 418.301 140.382 417.558 140.491 417.517C140.674 417.474 144.489 423.682 144.365 423.815C144.347 423.834 142.392 424.328 140.015 424.91ZM145.987 488.441C145.679 488.617 143.865 489.438 141.939 490.262C140.998 490.677 139.553 491.303 137.979 491.985C136.364 492.686 134.613 493.445 133.132 494.095C130.208 495.36 127.792 496.386 127.754 496.35C127.734 496.314 127.467 494.498 127.169 492.333C125.628 481.066 125.123 477.23 125.194 477.135C125.283 477.059 138.071 472.642 138.564 472.514C138.692 472.491 140.272 475.441 142.633 480.17C144.756 484.409 146.503 487.924 146.506 487.998C146.527 488.071 146.275 488.264 145.987 488.441ZM134.948 462.556C134.82 462.56 131.305 455.475 131.395 455.398C131.405 455.393 131.542 455.321 131.78 455.196C132.42 454.86 133.784 454.144 135.341 453.323L139.234 451.304L142.231 454.204L145.229 457.122L140.144 459.828C137.339 461.328 135.004 462.554 134.948 462.556ZM141.987 446.763C140.669 448.617 139.563 450.168 139.527 450.206C139.475 450.3 133.883 444.948 133.783 444.712C133.743 444.621 134.872 443.714 136.274 442.688L138.825 440.79L141.617 442.056C143.135 442.74 144.392 443.341 144.392 443.359C144.393 443.377 143.337 444.863 142.047 446.679L142.041 446.687L141.987 446.763ZM137.405 418.364C135.17 419.807 134.844 419.966 134.523 419.757C133.484 419.056 132.27 418.103 132.304 418.01C132.319 417.935 133.458 416.77 134.829 415.394L137.305 412.928L138.143 414.189C138.609 414.873 139.21 415.682 139.459 415.968C139.728 416.254 139.941 416.559 139.943 416.615C139.946 416.688 138.793 417.467 137.405 418.364ZM131.404 436.289L131.402 436.288L131.27 436.227C131.213 436.173 131.631 431.825 131.702 431.768C131.702 431.749 132.68 431.788 133.845 431.876L135.97 432.004L137.039 435.654C137.627 437.661 138.091 439.323 138.092 439.341C138.074 439.36 136.556 438.676 134.701 437.82C133.149 437.104 131.82 436.483 131.404 436.289ZM134.747 452.68C132.665 453.768 130.924 454.604 130.904 454.568C130.499 454.066 127.746 448.17 127.873 448.111C127.983 448.07 129.12 447.384 130.401 446.583L132.747 445.136L135.645 447.836C137.228 449.329 138.544 450.573 138.546 450.628C138.548 450.683 136.848 451.61 134.747 452.68ZM135.428 442.22L133.019 443.983L131.226 442.294C130.253 441.37 129.431 440.533 129.391 440.442C129.351 440.351 129.673 439.547 130.121 438.683L130.913 437.087L134.38 438.661C136.273 439.516 137.83 440.272 137.832 440.328C137.834 440.383 136.757 441.232 135.428 442.22ZM137.802 471.822C137.545 471.918 136.737 472.192 135.846 472.495C135.602 472.578 135.352 472.663 135.106 472.747C128.33 475.089 125.05 476.2 124.993 476.147C124.915 476.039 123.628 466.22 123.68 466.144C123.734 466.105 125.07 465.819 126.663 465.504C131.278 464.622 134.043 464.063 134.279 463.962C134.443 463.901 135.17 465.166 136.44 467.703L136.774 468.376C137.67 470.183 138.365 471.583 138.366 471.599C138.385 471.617 138.112 471.719 137.802 471.822ZM133.776 430.975C132.724 430.939 131.837 430.878 131.799 430.842C131.665 430.718 132.028 427.939 132.207 427.804C132.478 427.628 134.783 427.104 134.878 427.193C134.973 427.282 135.568 430.027 135.625 430.596L135.659 431.038L133.776 430.975ZM133.379 426.509C132.629 426.683 131.949 426.762 131.892 426.69C131.755 426.474 130.799 423.963 130.793 423.779C130.788 423.65 134.159 421.466 134.399 421.457C134.472 421.455 134.584 422.52 134.648 423.827L134.768 426.183L133.379 426.509ZM131.744 421.994C130.066 423.03 130.047 423.031 129.216 421.954L128.81 421.415L130.2 420.039L131.608 418.661L132.801 419.559C132.888 419.625 132.969 419.687 133.045 419.744C133.485 420.074 133.741 420.266 133.747 420.466C133.756 420.744 133.283 421.038 132.152 421.74C132.025 421.819 131.889 421.903 131.744 421.994ZM133.627 463.248C133.041 463.379 123.867 465.16 123.646 465.168C123.554 465.171 123.279 463.669 123.03 461.834C122.798 459.98 122.552 458.219 122.485 457.908L122.355 457.341L126.187 456.744C128.278 456.412 130.128 456.07 130.273 456.01C130.491 455.91 130.942 456.668 132.273 459.368C133.226 461.289 134.021 462.921 134.024 462.994C134.026 463.068 133.846 463.185 133.627 463.248ZM129.77 445.941C128.488 446.706 127.403 447.334 127.348 447.336C127.238 447.34 125.548 443.878 125.638 443.82C125.669 443.803 126.115 443.38 126.703 442.824L127.048 442.498C127.816 441.788 128.496 441.211 128.57 441.208C128.754 441.202 132.07 444.256 132.076 444.422C132.079 444.495 131.033 445.178 129.77 445.941ZM130.052 427.327C129.466 427.458 128.9 427.607 128.772 427.649C128.663 427.69 128.431 427.384 128.269 426.966C128.107 426.548 127.905 426.075 127.826 425.912C127.726 425.694 127.958 425.465 128.697 424.996C129.257 424.663 129.763 424.387 129.855 424.384C129.966 424.38 130.982 426.52 131.071 426.959C131.092 427.032 130.619 427.196 130.052 427.327ZM130.922 430.025C130.822 430.858 130.768 430.897 129.527 430.738L128.823 430.634L128.786 429.584L128.748 428.535L129.536 428.378C129.957 428.289 130.505 428.159 130.743 428.095C131.145 427.989 131.164 428.007 131.092 428.599C131.086 428.648 131.08 428.702 131.072 428.76C131.065 428.819 131.057 428.881 131.048 428.947C131.004 429.287 130.95 429.705 130.922 430.025ZM130.554 434.035C130.464 435.099 130.428 435.533 130.234 435.621C130.101 435.681 129.893 435.576 129.542 435.399C129.501 435.378 129.458 435.356 129.413 435.333C129.192 435.216 128.984 435.11 128.817 435.026C128.615 434.923 128.476 434.852 128.455 434.833C128.38 434.798 128.844 431.758 128.932 431.644C129.092 431.473 130.707 431.784 130.715 432.005C130.719 432.116 130.656 432.929 130.575 433.78C130.567 433.869 130.56 433.954 130.554 434.035ZM129.436 438.062C129.057 438.831 128.676 439.527 128.605 439.603C128.534 439.679 128.003 439.274 127.448 438.685L126.451 437.596L127.191 436.647C127.597 436.135 127.969 435.698 128.006 435.697C128.08 435.694 130.14 436.598 130.142 436.654C130.143 436.672 129.833 437.292 129.436 438.062ZM128.282 424.218L127.236 424.882L126.813 424.381C126.332 423.808 126.366 423.733 127.494 422.771L128.209 422.156L128.746 422.727C129.052 423.048 129.303 423.371 129.306 423.444C129.309 423.518 128.842 423.866 128.282 424.218ZM129.657 455.275C129.072 455.425 123.223 456.333 122.67 456.352C122.232 456.368 122.226 456.314 122.041 454.633L122.036 454.586C121.927 453.594 121.797 452.529 121.73 452.2L121.6 451.633L124.258 450.156L126.916 448.679L127.629 450.074C129.295 453.371 130.049 454.893 130.054 455.022C130.056 455.095 129.876 455.212 129.657 455.275ZM127.496 430.663C127.255 430.616 126.921 430.572 126.756 430.578C126.498 430.587 126.418 430.424 126.399 429.872C126.378 429.282 126.446 429.132 126.793 429.028C127.723 428.737 127.837 428.825 127.872 429.82C127.903 430.703 127.887 430.759 127.496 430.663ZM127.767 433.105C127.68 433.772 127.571 434.348 127.554 434.385C127.537 434.423 127.257 434.322 126.938 434.167C126.319 433.876 126.278 433.748 126.413 432.36L126.511 431.49L127.213 431.521C127.247 431.521 127.28 431.521 127.311 431.521C127.575 431.523 127.737 431.524 127.825 431.605C127.965 431.734 127.917 432.067 127.792 432.927C127.784 432.984 127.776 433.044 127.767 433.105ZM126.962 428.082C126.596 428.15 126.284 428.198 126.246 428.162C126.208 428.127 126.123 427.798 126.036 427.432C125.904 426.828 125.937 426.735 126.426 426.46L126.968 426.145L127.272 426.927C127.453 427.345 127.596 427.746 127.598 427.801C127.619 427.874 127.328 427.995 126.962 428.082ZM126.544 441.815C125.794 442.487 125.167 443.007 125.129 442.971C125.091 442.936 124.735 442.266 124.358 441.505L123.644 440.092L124.591 439.229C125.109 438.749 125.63 438.362 125.74 438.358C125.924 438.352 127.874 440.293 127.881 440.495C127.883 440.55 127.277 441.143 126.544 441.815ZM126.101 436.575C125.709 436.958 125.709 436.958 125.099 436.39C124.508 435.839 124.507 435.82 124.848 435.55C124.947 435.473 125.077 435.372 125.207 435.27C125.337 435.169 125.467 435.067 125.566 434.99C125.87 434.74 125.981 434.736 126.524 434.975L127.123 435.23L126.808 435.721C126.615 435.986 126.297 436.384 126.101 436.575ZM125.506 426.013C125.433 426.015 125.281 425.892 125.147 425.749C124.936 425.517 124.968 425.386 125.322 424.987L125.748 424.511L126.094 424.904C126.44 425.297 126.44 425.316 126.029 425.662C125.796 425.855 125.562 426.011 125.506 426.013ZM118.904 518.255L108.112 518.636L108.205 518.135C108.297 517.597 108.439 516.412 109.447 507.895C109.757 505.192 110.082 502.912 110.153 502.836C110.224 502.76 112.302 502.078 114.746 501.328C116.125 500.904 117.915 500.349 119.591 499.83C120.886 499.428 122.112 499.048 123.027 498.767C125.142 498.102 126.875 497.58 126.914 497.615C126.989 497.649 129.591 516.494 129.659 517.376L129.695 517.873L118.904 518.255ZM124.006 449.28C122.65 450.047 121.528 450.658 121.509 450.64C121.432 450.551 120.903 446.015 120.957 445.958C121.099 445.806 124.72 444.442 124.796 444.513C124.91 444.62 126.454 447.608 126.46 447.773C126.481 447.828 125.38 448.512 124.006 449.28ZM124.798 430.5C124.262 430.463 124.019 430.361 123.955 430.106C123.871 429.832 123.997 429.735 124.618 429.584C125.332 429.43 125.37 429.447 125.496 429.885C125.666 430.524 125.63 430.544 124.798 430.5ZM125.427 433.17C125.306 433.377 125.121 433.365 124.465 433.056C124.261 432.955 124.07 432.865 123.917 432.793L123.917 432.793C123.732 432.706 123.604 432.646 123.583 432.626C123.564 432.609 123.628 432.33 123.727 432.013C123.892 431.472 123.982 431.414 124.719 431.388L125.529 431.359L125.557 432.151C125.572 432.574 125.515 433.037 125.427 433.17ZM124.806 428.619C124.566 428.627 124.237 428.694 124.073 428.755C123.51 428.997 123.758 428.195 124.388 427.767C124.73 427.515 125.055 427.319 125.11 427.317C125.165 427.315 125.212 427.609 125.225 427.959C125.244 428.511 125.192 428.605 124.806 428.619ZM123.991 426.97C123.18 427.478 123.023 427.225 123.717 426.518C124.162 426.06 124.271 426.019 124.426 426.235L124.426 426.236L124.427 426.236C124.524 426.38 124.621 426.523 124.621 426.542C124.621 426.542 124.333 426.736 123.991 426.97ZM124.343 434.831C123.782 435.127 123.763 435.128 123.135 434.56C122.392 433.885 122.351 433.758 122.824 433.575C123.17 433.452 124.888 434.092 124.898 434.368C124.901 434.442 124.65 434.654 124.343 434.831ZM124.355 438.264C123.718 438.847 123.45 439.093 123.259 439.043C123.121 439.007 123.024 438.813 122.856 438.477L122.829 438.424L122.433 437.645L123.093 437.014L123.753 436.4L124.382 436.968C124.724 437.269 125.012 437.573 125.013 437.61C125.014 437.646 124.765 437.895 124.443 438.183L124.355 438.264ZM124.91 497.262L124.177 497.487L124.17 497.489C120.702 498.553 110.815 501.587 110.446 501.719C110.172 501.803 110.115 501.749 110.197 501.47C110.246 501.284 110.533 498.969 110.845 496.321C111.018 494.859 111.176 493.515 111.321 492.281C112.808 479.673 112.95 478.469 113.287 478.412C113.322 478.406 113.36 478.412 113.402 478.42C113.441 478.427 113.483 478.435 113.531 478.433C113.788 478.405 116.286 478.133 119.059 477.795C121.831 477.457 124.126 477.192 124.164 477.209C124.278 477.315 126.838 496.512 126.75 496.625C126.696 496.683 125.858 496.97 124.91 497.262ZM122.559 444.334C121.594 444.7 120.774 444.969 120.755 444.951C120.621 444.808 120.476 442.785 120.605 442.781C120.678 442.778 121.216 442.353 121.769 441.818C122.322 441.3 122.841 440.858 122.915 440.855C123.062 440.85 124.269 443.167 124.28 443.48C124.302 443.59 123.523 443.968 122.559 444.334ZM122.759 429.134C122.305 429.334 122.224 429.134 122.657 428.879C122.875 428.761 123.04 428.737 123.044 428.847C123.047 428.939 122.922 429.073 122.759 429.134ZM122.414 430.344C121.787 430.348 121.768 430.33 122.169 430.187C122.825 429.961 123.083 429.952 123.09 430.155C123.094 430.265 122.783 430.35 122.414 430.344ZM122.717 432.141C122.7 432.16 122.251 431.973 121.707 431.734C121.164 431.495 120.751 431.27 120.769 431.269C120.805 431.249 121.303 431.25 121.894 431.266C122.891 431.305 122.947 431.321 122.849 431.694C122.824 431.779 122.801 431.862 122.782 431.932C122.751 432.046 122.728 432.129 122.717 432.141ZM122.102 436.643C121.973 436.648 121.781 436.433 121.68 436.16C121.604 435.945 121.497 435.701 121.422 435.529L121.422 435.528C121.395 435.468 121.373 435.417 121.357 435.379C121.296 435.233 121.36 434.954 121.483 434.766C121.729 434.444 121.767 434.461 122.398 435.102L123.086 435.778L122.714 436.216C122.501 436.445 122.231 436.638 122.102 436.643ZM118.604 476.944C115.685 477.287 113.259 477.521 113.22 477.467C113.163 477.413 113.422 474.823 113.809 471.693L114.474 465.99L116.707 466.041C117.531 466.049 118.643 466.072 119.597 466.092L119.599 466.092C120.052 466.102 120.47 466.111 120.803 466.117L122.686 466.179L122.83 467.115C123.531 471.829 124.089 476.142 124 476.237C123.947 476.294 121.506 476.62 118.604 476.944ZM121.496 440.887C120.818 441.519 120.421 441.773 120.343 441.628C120.283 441.501 120.149 440.861 120.07 440.181L119.916 438.951L120.749 438.535C121.203 438.316 121.622 438.172 121.679 438.225C121.793 438.332 122.466 439.617 122.491 439.801C122.511 439.855 122.049 440.351 121.496 440.887ZM121.96 433.145C121.775 433.133 121.151 432.694 121.147 432.565C121.145 432.51 121.349 432.558 121.611 432.659C122.042 432.847 122.255 433.134 121.96 433.145ZM119.96 465.225C118.558 465.219 116.768 465.172 115.993 465.144C114.645 465.081 114.552 465.066 114.63 464.676C114.706 464.212 115.236 459.897 115.388 458.472L115.483 457.491L118.061 457.419C120.199 457.38 121.381 457.43 121.496 457.574C121.555 457.664 122.393 463.627 122.437 464.363L122.487 465.246L119.96 465.225ZM119.823 437.885C119.73 437.852 119.659 437.43 119.642 436.951C119.618 436.27 119.702 436.027 119.99 435.833C120.004 435.823 120.018 435.813 120.031 435.804C120.184 435.698 120.277 435.634 120.357 435.646C120.481 435.665 120.576 435.865 120.817 436.369C120.837 436.411 120.858 436.455 120.88 436.502L121.26 437.318L120.607 437.636C120.245 437.815 119.898 437.919 119.823 437.885ZM120.869 434.105C120.777 434.108 120.564 433.803 120.366 433.441L120.01 432.753L120.505 433.178C120.981 433.603 121.182 434.094 120.869 434.105ZM118.639 456.55C117.09 456.55 115.78 456.522 115.742 456.487C115.647 456.398 116.143 451.66 116.282 451.415C116.386 451.246 120.452 451.508 120.662 451.703C120.7 451.738 120.86 452.618 120.989 453.664C121.137 454.71 121.281 455.664 121.321 455.755C121.644 456.536 121.59 456.556 118.639 456.55ZM118.63 450.558C117.576 450.484 116.632 450.37 116.556 450.299C116.404 450.176 116.751 446.439 116.929 446.267C116.965 446.228 117.663 446.148 118.473 446.12L119.945 446.031L120.088 446.948C120.328 448.525 120.605 450.617 120.589 450.673C120.571 450.692 119.684 450.65 118.63 450.558ZM119.738 434.975C119.487 435.15 119.448 435.114 119.282 434.069L119.139 433.152L119.512 433.784C119.962 434.506 120.009 434.799 119.738 434.975ZM118.35 445.257L116.951 445.307L117.052 444.529C117.238 443.01 117.345 442.896 118.781 442.845C119.352 442.825 119.502 442.893 119.588 443.241C119.737 443.807 119.85 444.909 119.782 445.078C119.748 445.153 119.105 445.231 118.35 445.257ZM119.046 441.988C118.809 442.051 118.35 442.123 118.037 442.134C117.337 442.159 117.337 442.14 117.567 440.307L117.743 439.028L118.318 439.119C118.633 439.163 118.931 439.244 118.987 439.279C119.063 439.35 119.291 440.559 119.418 441.55C119.424 441.735 119.264 441.906 119.046 441.988ZM118.379 438.25C117.827 438.269 117.807 438.233 117.898 437.677C118.079 436.546 118.621 436.231 118.784 437.184C118.798 437.273 118.813 437.368 118.828 437.461L118.828 437.462C118.866 437.695 118.902 437.918 118.905 438.01C118.928 438.138 118.729 438.237 118.379 438.25ZM118.31 435.763C118.112 435.899 118.097 435.476 118.271 434.658C118.381 434.138 118.4 434.137 118.444 434.873C118.459 435.297 118.418 435.704 118.31 435.763ZM117.422 434.117C117.321 434.931 117.304 434.969 117.034 434.61C116.724 434.196 116.784 433.807 117.313 433.125C117.525 432.859 117.651 432.781 117.602 432.949C117.552 433.116 117.46 433.636 117.422 434.117ZM116.935 437.563C116.843 437.567 116.447 437.304 116.048 436.986L115.327 436.403L115.781 435.686L116.217 434.97L116.628 435.657C117.022 436.362 117.211 437.554 116.935 437.563ZM115.975 433.356C115.754 433.364 115.805 433.252 116.198 432.869C116.59 432.505 116.59 432.505 116.347 432.938C116.208 433.164 116.049 433.354 115.975 433.356ZM116.514 441.303C116.443 441.379 115.801 440.941 115.078 440.321L113.748 439.206L114.215 438.342C114.475 437.872 114.755 437.438 114.845 437.379C114.935 437.321 115.406 437.599 115.9 438.006L116.792 438.73L116.706 439.95C116.656 440.616 116.567 441.227 116.514 441.303ZM116.122 444.82C116.04 445.099 115.78 445.053 113.692 444.39C112.387 443.993 111.305 443.626 111.266 443.59C111.152 443.484 113.189 440.093 113.339 440.143C113.395 440.159 114.114 440.687 114.911 441.323L116.353 442.47L116.278 443.487C116.242 444.041 116.172 444.652 116.122 444.82ZM115.113 435.046C114.663 435.892 114.609 435.931 114.188 435.485C113.882 435.182 113.899 435.126 114.468 434.534C114.806 434.191 115.167 433.957 115.279 434.008C115.561 434.164 115.544 434.201 115.113 435.046ZM115.69 448.246C115.578 449.246 115.442 450.081 115.406 450.119C115.371 450.157 113.791 449.807 111.875 449.34C109.011 448.648 108.433 448.448 108.516 448.205C108.668 447.794 110.51 444.631 110.691 444.514C110.925 444.358 115.905 445.971 115.914 446.229C115.919 446.358 115.822 447.264 115.69 448.246ZM114.982 454.282C114.827 455.652 114.652 456.433 114.54 456.4L109.957 455.05C107.553 454.342 105.522 453.732 105.446 453.661C105.35 453.572 107.428 449.756 107.802 449.374C107.855 449.316 112.334 450.32 115.051 451.035C115.293 451.1 115.372 451.245 115.312 451.616C115.266 451.875 115.124 453.078 114.982 454.281L114.982 454.282ZM113.636 437.588C113.357 438.059 113.094 438.437 113.02 438.439C112.873 438.444 111.914 437.391 111.907 437.206C111.905 437.133 112.169 436.791 112.507 436.448C113.112 435.818 113.112 435.818 113.602 436.132C113.867 436.326 114.096 436.521 114.098 436.594C114.101 436.668 113.895 437.118 113.636 437.588ZM113.64 464.84C113.481 465.011 100.96 461.342 100.953 461.14C100.95 461.066 101.818 459.524 102.896 457.697C104.391 455.136 104.901 454.418 105.125 454.502C105.16 454.512 105.28 454.548 105.469 454.606C106.185 454.823 107.901 455.344 109.803 455.904C111.778 456.486 113.528 457.013 114.15 457.201L114.151 457.201C114.229 457.225 114.29 457.243 114.33 457.255C114.36 457.264 114.379 457.27 114.387 457.272C114.611 457.356 113.888 464.554 113.64 464.84ZM112.491 475.095C112.41 475.928 112.271 476.689 112.202 476.82C112.098 477.009 110.041 476.196 98.6625 471.454C97.1283 470.826 95.8342 470.208 95.7935 470.099C95.7113 469.862 100.285 462.067 100.525 462.077C100.636 462.073 103.598 462.945 107.139 464.019L113.587 465.93L113.114 469.763C112.874 471.855 112.591 474.262 112.491 475.095ZM111.548 441.128C111.335 441.488 111.13 441.833 110.955 442.129C110.672 442.607 110.467 442.953 110.435 443.011C110.312 443.2 107.778 441.409 107.844 441.185C107.929 440.979 110.993 437.958 111.141 437.953C111.288 437.947 112.512 439.195 112.537 439.36C112.538 439.397 112.086 440.187 111.548 441.128ZM110.004 495.765L110.003 495.776C109.774 497.682 109.614 499.014 109.527 499.724C109.401 500.871 109.252 501.854 109.198 501.893C109.145 501.95 103.437 499.57 96.4918 496.626C89.5464 493.663 83.7438 491.213 83.6129 491.163C83.5705 491.146 83.5287 491.144 83.5055 491.122C83.3898 491.012 83.7402 490.411 86.824 485.131L87.1766 484.528C87.5702 483.856 87.9446 483.217 88.3008 482.609C94.5612 471.921 95.1944 470.84 95.443 470.923C95.471 470.932 95.4941 470.956 95.5198 470.982C95.5346 470.998 95.5503 471.014 95.5682 471.029C95.7392 471.17 97.2569 471.854 98.9594 472.55C101.841 473.739 110.692 477.409 111.647 477.817C111.871 477.902 112.063 478.116 112.069 478.282C112.075 478.448 111.894 480.113 111.666 482.002C110.94 487.985 110.38 492.644 110.004 495.765ZM107.948 447.248L107.478 448.057L105.605 446.704C104.565 445.966 103.712 445.296 103.728 445.24C103.739 445.037 106.879 442.068 107.082 442.06C107.193 442.057 107.871 442.475 108.59 443.003L109.896 443.952L109.166 445.195C108.747 445.874 108.208 446.796 107.948 447.248ZM108.801 505.779C108.641 507.001 108.256 510.186 107.944 512.834C107.292 518.389 107.248 518.704 107.078 518.599C106.928 518.531 103.418 517.825 81.6919 513.486C73.5956 511.873 71.7568 511.496 71.624 511.39C71.5471 511.3 81.8337 493.512 82.7273 492.19C82.9556 491.868 83.8158 492.206 94.8416 496.887C95.9955 497.377 97.1289 497.859 98.2167 498.321L98.2173 498.321C103.289 500.475 107.369 502.209 107.907 502.418C108.656 502.741 109.072 503.022 109.079 503.224C109.085 503.39 108.96 504.538 108.801 505.779ZM105.827 450.9L105.525 451.404C105.022 452.243 104.638 452.884 104.608 452.916C104.555 452.973 101.829 450.968 100.367 449.784L99.7022 449.236L101.304 447.612C102.194 446.714 103 446.022 103.13 446.054C103.466 446.171 106.948 448.685 106.953 448.832C106.974 448.905 106.454 449.845 105.827 450.9ZM100.297 460.315C100.122 460.579 99.67 460.319 96.625 458.158C93.2769 455.769 93.1816 455.68 93.5013 455.337C93.679 455.146 94.979 453.847 96.4041 452.432L98.9871 449.87L101.564 451.825L104.14 453.762L102.314 456.888C101.665 458.012 101.043 459.056 100.664 459.693C100.465 460.027 100.333 460.25 100.297 460.315ZM96.8899 466.17C95.8817 467.902 95.0098 469.315 94.9545 469.317C94.8993 469.319 92.9623 467.728 90.663 465.8L86.4636 462.279L89.4736 459.278L92.4842 456.295L94.9046 457.998C95.4648 458.399 96.076 458.839 96.6433 459.246C97.417 459.802 98.1092 460.3 98.4802 460.563L99.6539 461.425L99.1846 462.235C98.924 462.687 97.8987 464.456 96.8899 466.17ZM88.6474 480.235C85.5169 485.564 82.8872 489.934 82.7952 489.938C82.5926 489.945 72.1912 476.852 72.1821 476.595C72.1736 476.355 85.6952 462.97 85.8819 463.037C86.3298 463.187 94.4498 470.165 94.4004 470.333C94.3497 470.464 91.7595 474.907 88.6474 480.235ZM76.7887 500.494C73.7635 505.672 71.1891 510.04 71.0667 510.229C70.8739 510.513 70.0343 509.713 63.5104 503.029C59.473 498.875 55.7998 495.115 55.3599 494.669L54.5381 493.85L62.8766 485.627C67.455 481.095 71.2499 477.347 71.3222 477.307C71.4492 477.247 82.2339 490.75 82.2608 490.989C82.2818 491.062 79.8146 495.335 76.7887 500.494Z" fill="black"/>
</svg>
